<?xml version="1.0" encoding="iso-8859-1"?>
<!-- Generator: Adobe Illustrator 19.0.0, SVG Export Plug-In . SVG Version: 6.00 Build 0)  -->
<svg version="1.1" id="Capa_1" xmlns="http://www.w3.org/2000/svg" xmlns:xlink="http://www.w3.org/1999/xlink" x="0px" y="0px"
	 viewBox="0 0 469.328 469.328" style="enable-background:new 0 0 469.328 469.328;" xml:space="preserve">
<g>
	<g>
		<g>
			<circle cx="373.332" cy="96" r="53.333"/>
			<circle cx="127.998" cy="106.667" r="106.667"/>
			<path d="M445.792,153.516c-3.583-4.688-10.333-5.542-14.938-1.979l-38.341,29.385c-4.009-3.81-8.742-6.865-14.18-8.615
				c-0.021,0-0.042-0.01-0.042-0.01c-6.229-1.979-19.729-2.823-30.583,1.583l-88.313,39.448h-78.021
				c-17.667,0-32.021,14.354-32.021,32c0,17.646,14.354,32,32.021,32h85.333c4.958,0,9.917-1.167,13.896-3.167l39.042-17.365
				l-12.917,50.927l-149.917-9.01c-12.188-0.542-24.063,4.708-31.583,14.354l-74.688,96c-12.646,16.26-9.708,39.76,6.542,52.406
				c6.625,5.135,14.542,7.854,22.896,7.854c11.625,0,22.375-5.25,29.479-14.406l62.646-80.5
				c161.854,9.604,162.5,9.604,162.917,9.604c11.385,0,21.638-6.074,28.372-15.456l46.211,34.633
				c1.917,1.438,4.167,2.135,6.396,2.135c3.229,0,6.438-1.469,8.542-4.271c3.521-4.708,2.563-11.396-2.146-14.927l-50.681-37.982
				l32.368-127.487c1.842-7.228,1.495-14.587-0.466-21.392l40.195-30.806C448.501,164.891,449.376,158.193,445.792,153.516z"/>
		</g>
	</g>
</g>
<g>
</g>
<g>
</g>
<g>
</g>
<g>
</g>
<g>
</g>
<g>
</g>
<g>
</g>
<g>
</g>
<g>
</g>
<g>
</g>
<g>
</g>
<g>
</g>
<g>
</g>
<g>
</g>
<g>
</g>
</svg>
