<?xml version="1.0" encoding="iso-8859-1"?>
<!-- Generator: Adobe Illustrator 19.0.0, SVG Export Plug-In . SVG Version: 6.00 Build 0)  -->
<svg version="1.1" id="Capa_1" xmlns="http://www.w3.org/2000/svg" xmlns:xlink="http://www.w3.org/1999/xlink" x="0px" y="0px"
	 viewBox="0 0 512 512" style="enable-background:new 0 0 512 512;" xml:space="preserve">
<g>
	<g>
		<path d="M68.994,30.548C66.377,30.198,63.712,30,61,30C27.916,30,1,56.916,1,90v179.73l30-15l29-14.501l61,30.5V90
			C121,59.628,98.31,34.471,68.994,30.548z"/>
	</g>
</g>
<g>
	<g>
		<rect x="1" y="362" width="120" height="30"/>
	</g>
</g>
<g>
	<g>
		<polygon points="60,273.771 31,288.271 1,303.271 1,332 121,332 121,304.271 		"/>
	</g>
</g>
<g>
	<g>
		<rect x="151" y="392" width="360" height="30"/>
	</g>
</g>
<g>
	<g>
		<polygon points="481,318.271 452,303.771 392,333.771 332,303.771 272,333.771 212,303.771 151,334.271 151,362 511,362 
			511,333.271 		"/>
	</g>
</g>
<g>
	<g>
		<rect x="121" y="452" width="30" height="60"/>
	</g>
</g>
<g>
	<g>
		<rect x="1" y="422" width="30" height="60"/>
	</g>
</g>
<g>
	<g>
		<rect x="481" y="452" width="30" height="60"/>
	</g>
</g>
<g>
	<g>
		<path d="M436,0H76c-2.406,0-4.783,0.125-7.132,0.348C71.273,0.557,73.652,0.861,76,1.257C96.517,4.714,114.698,15.135,128.02,30
			C142.3,45.935,151,66.969,151,90v210.73l61-30.5l60,30l60-30l60,30l60-30l59,29.5V75C511,33.645,477.355,0,436,0z"/>
	</g>
</g>
<g>
	<g>
		<rect x="421" y="452" width="30" height="60"/>
	</g>
</g>
<g>
	<g>
		<rect x="361" y="452" width="30" height="60"/>
	</g>
</g>
<g>
	<g>
		<rect x="301" y="452" width="30" height="60"/>
	</g>
</g>
<g>
	<g>
		<rect x="241" y="452" width="30" height="60"/>
	</g>
</g>
<g>
	<g>
		<rect x="181" y="452" width="30" height="60"/>
	</g>
</g>
<g>
	<g>
		<rect x="61" y="422" width="30" height="60"/>
	</g>
</g>
<g>
</g>
<g>
</g>
<g>
</g>
<g>
</g>
<g>
</g>
<g>
</g>
<g>
</g>
<g>
</g>
<g>
</g>
<g>
</g>
<g>
</g>
<g>
</g>
<g>
</g>
<g>
</g>
<g>
</g>
</svg>
