<svg height="512pt" viewBox="0 -61 512 512" width="512pt" xmlns="http://www.w3.org/2000/svg"><path d="m0 45h150v30h212v-30h150v-45h-512zm0 0"/><path d="m0 75h120v30h-120zm0 0"/><path d="m392 75h120v30h-120zm0 0"/><path d="m362 105h-212v30h-150c0 21.769531 3.035156 42.796875 8.191406 62.980469 20.136719-11.488281 43.058594-17.980469 66.808594-17.980469 74.441406 0 135 60.558594 135 135 0 24.109375-6.648438 46.875-18.019531 66.800781 20.199219 5.160157 42.238281 8.199219 64.019531 8.199219 21.789062 0 43.835938-3.042969 64.039062-8.207031-11.402343-19.976563-18.039062-42.765625-18.039062-66.792969 0-74.441406 60.558594-135 135-135 24.027344 0 46.816406 6.632812 66.792969 18.035156 5.164062-20.199218 8.207031-41.246094 8.207031-63.035156h-150zm0 0"/><path d="m332 315c0 20.902344 6.191406 40.761719 17.144531 57.503906 66.519531-25.898437 119.460938-78.839844 145.359375-145.359375-16.742187-10.953125-36.601562-17.144531-57.503906-17.144531-57.890625 0-105 47.109375-105 105zm0 0"/><path d="m75 210c-20.699219 0-40.316406 6.769531-57.238281 17.867188 25.976562 66.117187 78.703125 118.726562 144.890625 144.5625 10.933594-16.703126 17.347656-36.429688 17.347656-57.429688 0-57.890625-47.109375-105-105-105zm0 0"/></svg>